<?xml version="1.0" standalone="no"?>
<!DOCTYPE svg PUBLIC "-//W3C//DTD SVG 20010904//EN"
 "http://www.w3.org/TR/2001/REC-SVG-20010904/DTD/svg10.dtd">
<svg version="1.0" xmlns="http://www.w3.org/2000/svg"
 width="656.000000pt" height="200.000000pt" viewBox="0 0 656.000000 200.000000"
 preserveAspectRatio="xMidYMid meet">

<g transform="translate(0.000000,200.000000) scale(0.100000,-0.100000)"
fill="#000000" stroke="none">
<path d="M1022 1588 c-5 -7 -29 -164 -52 -348 -59 -470 -78 -611 -83 -616 -2
-2 -25 98 -51 223 -78 373 -79 375 -94 381 -24 9 -37 -20 -88 -193 l-48 -165
-195 -2 -196 -3 0 -25 0 -25 212 -3 c194 -2 213 -1 221 15 5 10 24 69 42 131
18 62 36 109 40 105 3 -4 30 -123 59 -263 75 -362 81 -388 95 -393 25 -10 38
11 46 79 64 506 112 869 115 873 3 2 5 0 5 -6 0 -33 113 -670 120 -677 18 -18
41 5 70 68 l29 65 83 3 83 3 19 60 20 60 14 -50 c8 -27 19 -56 24 -62 8 -10
74 -13 269 -13 236 0 259 2 267 18 5 9 24 68 43 131 25 87 35 110 41 95 4 -10
37 -158 73 -328 36 -171 70 -313 77 -317 20 -12 37 2 43 34 7 47 115 894 115
908 0 44 16 -37 65 -331 31 -184 60 -339 65 -344 18 -18 42 6 71 69 l29 64 82
3 83 3 20 60 19 60 16 -50 c23 -77 19 -75 139 -75 137 0 146 7 109 83 -36 74
-42 109 -24 151 20 47 68 76 129 76 42 0 53 -5 91 -40 24 -22 46 -40 50 -40 4
0 24 18 44 39 79 83 181 62 222 -46 29 -76 76 -56 56 23 -10 37 -73 101 -113
115 -72 23 -141 11 -189 -33 -22 -20 -22 -19 -63 7 -69 47 -162 44 -226 -7
-59 -46 -81 -141 -50 -215 8 -19 15 -39 15 -44 0 -5 -29 -9 -64 -9 l-64 0 -27
100 c-41 145 -67 142 -105 -9 l-22 -91 -79 0 -79 0 -19 -37 c-24 -47 -15 -85
-92 377 -38 233 -65 370 -75 380 -27 28 -41 -8 -58 -150 -35 -289 -104 -811
-108 -815 -2 -3 -32 129 -67 293 -34 163 -67 301 -72 307 -23 24 -44 -17 -92
-183 l-50 -172 -228 0 -228 0 -15 53 c-8 28 -20 73 -26 99 -23 92 -59 69 -90
-60 l-22 -92 -79 0 -79 0 -19 -37 c-24 -47 -14 -86 -92 377 -57 338 -68 390
-89 390 -4 0 -12 -6 -18 -12z"/>
<path d="M4212 1588 c-5 -7 -12 -33 -16 -58 -3 -25 -28 -223 -56 -440 -57
-447 -61 -473 -66 -468 -3 4 -55 245 -111 521 -16 79 -33 101 -56 78 -7 -7
-34 -87 -62 -179 l-50 -167 -91 -5 -91 -5 -111 -103 c-61 -57 -113 -107 -117
-110 -3 -3 -30 18 -59 47 -52 52 -84 63 -94 33 -5 -17 134 -154 153 -150 8 2
64 53 126 113 l112 110 106 5 106 5 22 70 c12 39 29 96 38 128 9 32 19 56 22
53 5 -4 47 -197 107 -491 15 -72 29 -137 32 -147 6 -19 26 -29 42 -19 7 4 36
201 72 475 33 258 61 471 63 473 2 2 28 -142 57 -319 29 -178 57 -333 62 -346
14 -39 40 -22 74 48 l31 65 84 5 84 5 13 45 c23 77 24 77 40 25 8 -27 19 -56
24 -62 8 -10 74 -13 267 -13 141 0 261 4 267 8 7 4 26 57 43 117 43 147 41
144 50 120 5 -11 36 -157 71 -325 96 -463 100 -460 175 140 31 245 60 454 64
464 4 12 27 -102 60 -300 28 -175 56 -329 61 -341 16 -40 38 -26 75 47 l35 69
82 3 83 3 14 53 c16 60 27 66 36 20 15 -74 24 -78 144 -78 116 0 143 10 118
43 -9 13 -33 17 -106 19 l-94 3 -24 90 c-41 151 -62 151 -103 2 l-25 -92 -78
-3 c-78 -3 -78 -3 -100 -39 -11 -20 -22 -32 -23 -27 -2 5 -31 179 -65 387 -93
560 -96 559 -179 -88 -33 -258 -60 -474 -60 -479 0 -37 -19 38 -71 285 -71
339 -66 319 -89 319 -20 0 -43 -63 -101 -272 l-24 -88 -232 0 -231 0 -11 33
c-5 17 -17 60 -27 94 -30 110 -59 107 -88 -8 -29 -123 -24 -118 -113 -121
l-78 -3 -17 -35 c-11 -24 -18 -30 -22 -20 -2 8 -33 184 -67 390 -57 348 -69
400 -89 400 -4 0 -12 -6 -18 -12z"/>
</g>
</svg>
